SplineFontDB: 3.2
FontName: Jianzi-Glyph
FullName: Jianzi Glyph
FamilyName: Jianzi
Weight: Regular
Copyright: Copyright (c) 2022, ElnurSpinel
UComments: "2022-5-1: Created with FontForge (http://fontforge.org)"
Version: 001.000
ItalicAngle: 0
UnderlinePosition: -125
UnderlineWidth: 50
Ascent: 880
Descent: 120
InvalidEm: 0
LayerCount: 2
Layer: 0 0 "Back" 1
Layer: 1 0 "Fore" 0
HasVMetrics: 1
XUID: [1021 717 -1451961647 18092]
StyleMap: 0x0000
FSType: 0
OS2Version: 0
OS2_WeightWidthSlopeOnly: 0
OS2_UseTypoMetrics: 1
CreationTime: 1651413172
ModificationTime: 1651522368
OS2TypoAscent: 0
OS2TypoAOffset: 1
OS2TypoDescent: 0
OS2TypoDOffset: 1
OS2TypoLinegap: 90
OS2WinAscent: 0
OS2WinAOffset: 1
OS2WinDescent: 0
OS2WinDOffset: 1
HheadAscent: 0
HheadAOffset: 1
HheadDescent: 0
HheadDOffset: 1
OS2Vendor: 'PfEd'
MarkAttachClasses: 1
DEI: 91125
Encoding: UnicodeFull
UnicodeInterp: none
NameList: AGL For New Fonts
DisplaySize: -72
AntiAlias: 1
FitToEm: 1
WinInfo: 57360 8 5
BeginPrivate: 0
EndPrivate
BeginChars: 1114112 30

StartChar: uniE000
Encoding: 57344 57344 0
Width: 1000
Flags: W
HStem: 315 51<83.4609 260.026>
LayerCount: 2
Fore
SplineSet
150 317 m 2
 143.333333333 316.333333333 137.333333333 315.833333333 132 315.5 c 0
 126.666666667 315.166666667 122 315 118 315 c 0
 107.333333333 315 98.5 318.833333333 91.5 326.5 c 0
 84.5 334.166666667 79.5 342.166666667 76.5 350.5 c 0
 73.5 358.833333333 72 364.333333333 72 367 c 0
 72 370.333333333 73.6666666667 372 77 372 c 0
 79 372 80.6666666667 371.666666667 82 371 c 0
 88 369 94.8333333333 367.666666667 102.5 367 c 0
 110.166666667 366.333333333 117.333333333 366 124 366 c 2
 136 366 l 1
 827 405 l 2
 838.333333333 405.666666667 847.166666667 406.5 853.5 407.5 c 0
 859.833333333 408.5 866.666666667 410.333333333 874 413 c 0
 875.333333333 413.666666667 877 414 879 414 c 0
 881.666666667 414 886.666666667 412.166666667 894 408.5 c 0
 901.333333333 404.833333333 908.333333333 399.833333333 915 393.5 c 0
 921.666666667 387.166666667 925 380 925 372 c 256
 925 364 920.333333333 359.333333333 911 358 c 2
 150 317 l 2
EndSplineSet
Validated: 1
EndChar

StartChar: uniE002
Encoding: 57346 57346 1
Width: 1000
Flags: W
HStem: 32 52<92.7382 324.76> 60 56<718.75 917.984> 333 51<276.344 427.333> 597 46<200.088 362.75>
LayerCount: 2
Fore
SplineSet
263 598 m 2x30
 257.666666667 597.333333333 252.666666667 597 248 597 c 0
 241 597 241 597 236 597 c 2
 231 597 l 2
 220.333333333 597 212.166666667 600.833333333 206.5 608.5 c 0
 200.833333333 616.166666667 195.666666667 626.333333333 191 639 c 0
 190.333333333 640.333333333 190 642 190 644 c 0
 190 646.666666667 191.666666667 648 195 648 c 0
 195.666666667 648 196.333333333 647.833333333 197 647.5 c 0
 197.666666667 647.166666667 198.333333333 647 199 647 c 0
 209 644.333333333 220 643 232 643 c 0
 234.666666667 643 237.5 643.166666667 240.5 643.5 c 0
 243.5 643.833333333 246.333333333 644 249 644 c 2
 704 671 l 2
 713.333333333 671.666666667 721.333333333 672.833333333 728 674.5 c 0
 734.666666667 676.166666667 741.666666667 677.666666667 749 679 c 0
 750.333333333 679 751.5 679.166666667 752.5 679.5 c 0
 753.5 679.833333333 754.666666667 680 756 680 c 0
 764.666666667 680 775.333333333 675 788 665 c 0
 796 657 800 649.333333333 800 642 c 0
 800 633.333333333 795.666666667 628.333333333 787 627 c 2
 263 598 l 2x30
319 334 m 2
 315.666666667 334 312.5 333.833333333 309.5 333.5 c 0
 306.5 333.166666667 303.666666667 333 301 333 c 0
 291.666666667 333 283.333333333 335.833333333 276 341.5 c 0
 268.666666667 347.166666667 261.666666667 360.333333333 255 381 c 0
 254.333333333 382.333333333 254 384 254 386 c 256
 254 388 255.666666667 389 259 389 c 2
 262 389 l 2
 268.666666667 387.666666667 275 386.5 281 385.5 c 0
 287 384.5 293.666666667 384 301 384 c 2
 308 384 l 1
 666 405 l 2
 673.333333333 405.666666667 680 406.333333333 686 407 c 0
 692 407.666666667 697.666666667 409 703 411 c 0
 704.333333333 411.666666667 706.666666667 412 710 412 c 0
 712.666666667 412 717.333333333 410.5 724 407.5 c 0
 730.666666667 404.5 737 400.333333333 743 395 c 0
 749 389.666666667 752 383.333333333 752 376 c 0
 752 365.333333333 745.666666667 359.333333333 733 358 c 2
 319 334 l 2
139 32 m 1xb0
 123 32 l 2
 107.666666667 32 97.5 34.6666666667 92.5 40 c 0
 87.5 45.3333333333 81 58.6666666667 73 80 c 0
 72.3333333333 81.3333333333 72 83 72 85 c 0
 72 87.6666666667 73.6666666667 89 77 89 c 0
 77.6666666667 89 78.5 88.8333333333 79.5 88.5 c 0
 80.5 88.1666666667 81.3333333333 88 82 88 c 0
 89.3333333333 87.3333333333 96.1666666667 86.5 102.5 85.5 c 0
 108.833333333 84.5 115.333333333 84 122 84 c 2
 131 84 l 1xb0
 823 109 l 2
 832.333333333 109.666666667 840.666666667 110.5 848 111.5 c 0
 855.333333333 112.5 864 114 874 116 c 2
 878 116 l 2
 884.666666667 116 894 112.333333333 906 105 c 0
 918 97.6666666667 924 87.6666666667 924 75 c 0
 924 65 920 60 912 60 c 2x70
 139 32 l 1xb0
EndSplineSet
Validated: 1
EndChar

StartChar: uniE001
Encoding: 57345 57345 2
Width: 1000
Flags: W
HStem: 82 52<89.3849 305.586> 114 57<737.516 913.845> 538 49<209.285 384.773> 563 55<614.375 764.401>
LayerCount: 2
Fore
SplineSet
268 539 m 2x10
 263.333333333 539 259 538.833333333 255 538.5 c 0
 251 538.166666667 247.333333333 538 244 538 c 0
 226.666666667 538 215 542.5 209 551.5 c 0
 203 560.5 198.333333333 571 195 583 c 0
 194.333333333 584.333333333 194 586 194 588 c 0
 194 590.666666667 195.666666667 592 199 592 c 0
 199.666666667 592 200.333333333 591.833333333 201 591.5 c 0
 201.666666667 591.166666667 202.333333333 591 203 591 c 0
 213.666666667 588.333333333 226.333333333 587 241 587 c 2
 254 587 l 1x20
 665 609 l 2
 675 609.666666667 684.166666667 610.5 692.5 611.5 c 0
 700.833333333 612.5 709.333333333 614.333333333 718 617 c 0
 719.333333333 617.666666667 722 618 726 618 c 0
 732.666666667 618 741.666666667 614.333333333 753 607 c 0
 764.333333333 599.666666667 770 590 770 578 c 0
 770 569.333333333 765.666666667 564.333333333 757 563 c 2
 268 539 l 2x10
153 83 m 2
 148.333333333 83 144 82.8333333333 140 82.5 c 0
 136 82.1666666667 132.333333333 82 129 82 c 0
 113.666666667 82 103.333333333 85.3333333333 98 92 c 0
 93.3333333333 97.3333333333 89.1666666667 103.5 85.5 110.5 c 0
 81.8333333333 117.5 79 124 77 130 c 0
 76.3333333333 131.333333333 76 133.333333333 76 136 c 0
 76 140 78 142 82 142 c 0
 83.3333333333 142 84.6666666667 141.666666667 86 141 c 0
 94 139 102.166666667 137.333333333 110.5 136 c 0
 118.833333333 134.666666667 126.666666667 134 134 134 c 2
 140 134 l 1x80
 826 163 l 2
 843.333333333 163.666666667 858.666666667 166 872 170 c 0
 873.333333333 170 874.5 170.166666667 875.5 170.5 c 0
 876.5 170.833333333 877.333333333 171 878 171 c 0
 887.333333333 171 897.166666667 166 907.5 156 c 0
 917.833333333 146 923 137 923 129 c 0
 923 120.333333333 918 115.333333333 908 114 c 2x40
 153 83 l 2
EndSplineSet
Validated: 1
EndChar

StartChar: uniE003
Encoding: 57347 57347 3
Width: 1000
Flags: W
HStem: 54 45<204 398.333> 73 47<610.737 791> 299 49<596.289 755.875> 312 53<647.001 792.65>
VStem: 151 57<-32.9674 54> 372 51<414.299 583> 537 50<359.35 592>
LayerCount: 2
Fore
SplineSet
204 54 m 1x8e
 208 -19 l 1
 208 -22 l 2
 208 -26.6666666667 206.833333333 -30.6666666667 204.5 -34 c 0
 202.166666667 -37.3333333333 198.333333333 -39 193 -39 c 0
 185.666666667 -39 176.833333333 -35.8333333333 166.5 -29.5 c 0
 156.166666667 -23.1666666667 151 -15.3333333333 151 -6 c 0
 151 -2 151 -2 151 2 c 0
 151 4.66666666667 151.333333333 7.66666666667 152 11 c 0
 152.666666667 18.3333333333 153.166666667 25.8333333333 153.5 33.5 c 0
 153.833333333 41.1666666667 154 49.3333333333 154 58 c 2
 154 78 l 1
 129 542 l 2
 128.333333333 558 126.833333333 572.333333333 124.5 585 c 0
 122.166666667 597.666666667 119.333333333 610.333333333 116 623 c 0
 115.333333333 626.333333333 114.666666667 629.166666667 114 631.5 c 0
 113.333333333 633.833333333 113 636 113 638 c 0
 113 642.666666667 115.333333333 645 120 645 c 256
 124.666666667 645 131.833333333 643 141.5 639 c 0
 151.166666667 635 164.333333333 628 181 618 c 1
 837 655 l 1
 844 655 l 2
 855.333333333 655 865 650.833333333 873 642.5 c 0
 881 634.166666667 885 627 885 621 c 0
 885 617.666666667 884.166666667 614.5 882.5 611.5 c 0
 880.833333333 608.5 879.666666667 605.666666667 879 603 c 2
 844 125 l 1
 863.333333333 107.666666667 873 94.6666666667 873 86 c 0
 873 78.6666666667 864.666666667 74.3333333333 848 73 c 2x4e
 204 54 l 1x8e
825 607 m 1
 589 594 l 1
 587 417 l 1
 587 405 l 2
 587 381.666666667 590 366.333333333 596 359 c 0
 602 351.666666667 618 348 644 348 c 0x6e
 665.333333333 348 682 348.5 694 349.5 c 0
 706 350.5 716 352.333333333 724 355 c 0
 732 357.666666667 740.666666667 360.666666667 750 364 c 0
 751.333333333 364.666666667 753.333333333 365 756 365 c 0
 763.333333333 365 772.333333333 360.833333333 783 352.5 c 0
 793.666666667 344.166666667 799 336 799 328 c 0
 799 319.333333333 792.666666667 314 780 312 c 0x1e
 759.333333333 308 737.166666667 304.833333333 713.5 302.5 c 0
 689.833333333 300.166666667 667.333333333 299 646 299 c 0
 609.333333333 299 582 304.833333333 564 316.5 c 0
 546 328.166666667 537 353.333333333 537 392 c 2
 537 396 l 1
 539 592 l 1
 423 585 l 1
 421 519 414.166666667 463.5 402.5 418.5 c 0
 390.833333333 373.5 373 334.5 349 301.5 c 0
 325 268.5 293.666666667 236.666666667 255 206 c 0
 243.666666667 196.666666667 234.333333333 192 227 192 c 0
 221.666666667 192 219 194.666666667 219 200 c 0
 219 207.333333333 224 216 234 226 c 0
 264.666666667 256.666666667 290.166666667 287.833333333 310.5 319.5 c 0
 330.833333333 351.166666667 346.166666667 387.833333333 356.5 429.5 c 0
 366.833333333 471.166666667 372 522.333333333 372 583 c 1
 177 572 l 1
 202 99 l 1xae
 791 120 l 1
 825 607 l 1
EndSplineSet
Validated: 1
EndChar

StartChar: uniE004
Encoding: 57348 57348 4
Width: 1000
Flags: W
HStem: -12 48<79.4092 320.125> 14 54<721.016 936.91> 346 46<207.47 404.289> 356 47<468 597.25> 368 47<569.25 696> 616 45<182.831 411.75>
LayerCount: 2
Fore
SplineSet
131 -12 m 1x84
 117 -12 l 2
 100.333333333 -12 87.6666666667 -9.66666666667 79 -5 c 0
 70.3333333333 -0.333333333333 62.3333333333 12.3333333333 55 33 c 0
 54.3333333333 34.3333333333 54 36.3333333333 54 39 c 0
 54 42.3333333333 56 44 60 44 c 0
 60.6666666667 44 61.3333333333 43.8333333333 62 43.5 c 0
 62.6666666667 43.1666666667 63.3333333333 43 64 43 c 0
 72.6666666667 41 80.6666666667 39.3333333333 88 38 c 0
 95.3333333333 36.6666666667 103 36 111 36 c 2
 118 36 l 1
 349 44 l 1
 406 354 l 1
 271 347 l 2
 266.333333333 347 262.166666667 346.833333333 258.5 346.5 c 0
 254.833333333 346.166666667 251.333333333 346 248 346 c 0
 234.666666667 346 225.333333333 348.333333333 220 353 c 0
 213.333333333 358.333333333 208 365.5 204 374.5 c 0
 200 383.5 198 389 198 391 c 0
 198 395 200.333333333 397 205 397 c 2
 208 397 l 2
 214.666666667 395 221 393.666666667 227 393 c 0
 233 392.333333333 238.666666667 392 244 392 c 0xa4
 247.333333333 392 250.833333333 392.166666667 254.5 392.5 c 0
 258.166666667 392.833333333 261.666666667 393 265 393 c 2
 414 400 l 1
 456 630 l 1
 236 617 l 2
 232 616.333333333 228.333333333 616 225 616 c 0
 220 616 220 616 215 616 c 0
 200.333333333 616 189.5 618.5 182.5 623.5 c 0
 175.5 628.5 169 639.666666667 163 657 c 0
 162.333333333 658.333333333 162 660 162 662 c 0
 162 664.666666667 163.666666667 666 167 666 c 0
 167.666666667 666 168.333333333 665.833333333 169 665.5 c 0
 169.666666667 665.166666667 170.333333333 665 171 665 c 0
 181.666666667 662.333333333 192.666666667 661 204 661 c 0
 207.333333333 661 210.5 661.166666667 213.5 661.5 c 0
 216.5 661.833333333 219.333333333 662 222 662 c 2
 728 692 l 2
 737.333333333 692.666666667 745.5 693.666666667 752.5 695 c 0
 759.5 696.333333333 766.666666667 698 774 700 c 0
 775.333333333 700 776.333333333 700.166666667 777 700.5 c 0
 777.666666667 700.833333333 778.666666667 701 780 701 c 0
 784.666666667 701 790.666666667 699.333333333 798 696 c 0
 805.333333333 692.666666667 812 688.333333333 818 683 c 0
 824 677.666666667 827 671.333333333 827 664 c 0
 827 656 822 651.333333333 812 650 c 2
 511 633 l 1
 468 403 l 1x14
 711 415 l 1
 716 415 l 2
 727.333333333 415 737 412.166666667 745 406.5 c 0
 753 400.833333333 757 394 757 386 c 0
 757 382 756.166666667 378.333333333 754.5 375 c 0
 752.833333333 371.666666667 751.666666667 368.666666667 751 366 c 2
 719 56 l 1
 848 60 l 2
 857.333333333 60.6666666667 865.333333333 61.3333333333 872 62 c 0
 878.666666667 62.6666666667 886 64.3333333333 894 67 c 0
 895.333333333 67.6666666667 897.333333333 68 900 68 c 0
 907.333333333 68 916.666666667 63.5 928 54.5 c 0
 939.333333333 45.5 945 36.3333333333 945 27 c 0
 945 19.6666666667 940 15.3333333333 930 14 c 2x4c
 131 -12 l 1x84
696 368 m 1x0c
 459 356 l 1x14
 401 45 l 1
 668 54 l 1
 696 368 l 1x0c
EndSplineSet
Validated: 1
EndChar

StartChar: uniE005
Encoding: 57349 57349 5
Width: 1000
Flags: W
HStem: 434 48<101.798 311.5>
VStem: 469 52<502 743.733>
LayerCount: 2
Fore
SplineSet
165 435 m 2
 160.333333333 434.333333333 156 434 152 434 c 0
 146 434 146 434 141 434 c 0
 125 434 113.166666667 439.5 105.5 450.5 c 0
 97.8333333333 461.5 93 470.333333333 91 477 c 0
 90.3333333333 478.333333333 90 480 90 482 c 0
 90 485.333333333 91.6666666667 487 95 487 c 0
 96.3333333333 487 97.3333333333 486.833333333 98 486.5 c 0
 98.6666666667 486.166666667 99.3333333333 486 100 486 c 0
 106.666666667 484.666666667 113.666666667 483.666666667 121 483 c 0
 128.333333333 482.333333333 135.333333333 482 142 482 c 2
 154 482 l 1
 469 500 l 1
 467 688 l 2
 467 706 463 723.333333333 455 740 c 0
 454.333333333 741.333333333 454 742.666666667 454 744 c 0
 454 748 457.666666667 750 465 750 c 0
 466.333333333 750 471.666666667 749.333333333 481 748 c 0
 490.333333333 746.666666667 499.333333333 744.166666667 508 740.5 c 0
 516.666666667 736.833333333 521 730.666666667 521 722 c 2
 521 502 l 1
 799 518 l 2
 809.666666667 518.666666667 819.5 519.666666667 828.5 521 c 0
 837.5 522.333333333 846.666666667 524.333333333 856 527 c 0
 857.333333333 527.666666667 858.666666667 528.166666667 860 528.5 c 0
 861.333333333 528.833333333 863 529 865 529 c 0
 868.333333333 529 873.666666667 527 881 523 c 0
 888.333333333 519 895 514 901 508 c 0
 907 502 910 495.666666667 910 489 c 0
 910 481 905.666666667 476.333333333 897 475 c 2
 165 435 l 2
115 -31 m 0
 107 -31 103 -28 103 -22 c 256
 103 -16 108 -8 118 2 c 0
 165.333333333 45.3333333333 208 90.5 246 137.5 c 0
 284 184.5 316.666666667 235.333333333 344 290 c 0
 346 294 347.833333333 299.333333333 349.5 306 c 0
 351.166666667 312.666666667 352.666666667 319 354 325 c 0
 354.666666667 328.333333333 356.666666667 330 360 330 c 0
 362.666666667 330 367.666666667 327.5 375 322.5 c 0
 382.333333333 317.5 389.333333333 311.166666667 396 303.5 c 0
 402.666666667 295.833333333 406 287.666666667 406 279 c 0
 406 276.333333333 405.333333333 273.666666667 404 271 c 0
 372.666666667 219 341.166666667 174.166666667 309.5 136.5 c 0
 277.833333333 98.8333333333 248.333333333 67.5 221 42.5 c 0
 193.666666667 17.5 170.5 -1 151.5 -13 c 0
 132.5 -25 120.333333333 -31 115 -31 c 0
878 25 m 0
 878 16.3333333333 873.333333333 8.83333333333 864 2.5 c 0
 854.666666667 -3.83333333333 847.333333333 -7 842 -7 c 0
 834.666666667 -7 829 -4 825 2 c 0
 789.666666667 53.3333333333 752 102.666666667 712 150 c 0
 672 197.333333333 629.666666667 241.666666667 585 283 c 0
 581 287 579 291 579 295 c 0
 579 300.333333333 581.833333333 306.666666667 587.5 314 c 0
 593.166666667 321.333333333 599.333333333 325 606 325 c 0
 608.666666667 325 612 323.666666667 616 321 c 0
 660 279 703.333333333 235 746 189 c 0
 788.666666667 143 830.666666667 93.3333333333 872 40 c 0
 876 35.3333333333 878 30.3333333333 878 25 c 0
EndSplineSet
Validated: 1
EndChar

StartChar: uniE006
Encoding: 57350 57350 6
Width: 1000
Flags: W
HStem: -27 50<482.949 828.679> 286 46<83.692 246.766>
VStem: 404 54<61.2084 332 389 734.621>
LayerCount: 2
Fore
SplineSet
459 341 m 1
 458 127 l 2
 458 97.6666666667 461.833333333 75.5 469.5 60.5 c 0
 477.166666667 45.5 492.5 35.5 515.5 30.5 c 0
 538.5 25.5 573.333333333 23 620 23 c 0
 654.666666667 23 688.333333333 24.6666666667 721 28 c 0
 753.666666667 31.3333333333 782.666666667 35.5 808 40.5 c 0
 833.333333333 45.5 851.666666667 50.6666666667 863 56 c 0
 867 58 871 59 875 59 c 0
 886.333333333 59 896.666666667 53.8333333333 906 43.5 c 0
 915.333333333 33.1666666667 920 24.6666666667 920 18 c 0
 920 8.66666666667 913.333333333 3 900 1 c 0
 846 -7.66666666667 795.333333333 -14.5 748 -19.5 c 0
 700.666666667 -24.5 656.333333333 -27 615 -27 c 0
 565.666666667 -27 525.5 -23.8333333333 494.5 -17.5 c 0
 463.5 -11.1666666667 440.666666667 2.16666666667 426 22.5 c 0
 411.333333333 42.8333333333 404 73.3333333333 404 114 c 2
 404 118 l 1
 405 332 l 1
 158 291 l 2
 148.666666667 289.666666667 141.166666667 288.5 135.5 287.5 c 0
 129.833333333 286.5 124.666666667 286 120 286 c 0
 114 286 108.333333333 287.333333333 103 290 c 0
 97.6666666667 293.333333333 92.5 297.833333333 87.5 303.5 c 0
 82.5 309.166666667 78.3333333333 314.666666667 75 320 c 0
 74.3333333333 321.333333333 74 323 74 325 c 0
 74 330.333333333 77 333 83 333 c 0
 86.3333333333 332.333333333 89.1666666667 332 91.5 332 c 0
 95 332 95 332 99 332 c 0
 106.333333333 332 113.166666667 332.5 119.5 333.5 c 0
 125.833333333 334.5 132 335.333333333 138 336 c 2
 406 380 l 1
 408 690 l 2
 408 697.333333333 407.333333333 704.166666667 406 710.5 c 0
 404.666666667 716.833333333 401.666666667 723.333333333 397 730 c 0
 395.666666667 732.666666667 395 734.333333333 395 735 c 0
 395 739.666666667 398.666666667 742 406 742 c 0
 412 742 421 740 433 736 c 0
 452.333333333 728.666666667 462 721 462 713 c 2
 460 389 l 1
 822 448 l 2
 831.333333333 449.333333333 840.166666667 451.5 848.5 454.5 c 0
 856.833333333 457.5 865.333333333 461 874 465 c 0
 876 466.333333333 878.333333333 467.333333333 881 468 c 0
 883.666666667 468.666666667 886.333333333 469 889 469 c 0
 893 469 898.833333333 467.333333333 906.5 464 c 0
 914.166666667 460.666666667 921.333333333 456.166666667 928 450.5 c 0
 934.666666667 444.833333333 938 438.333333333 938 431 c 0
 938 423 933.333333333 418.333333333 924 417 c 2
 459 341 l 1
EndSplineSet
Validated: 1
EndChar

StartChar: uniE007
Encoding: 57351 57351 7
Width: 1000
Flags: W
VStem: 347 57<452.682 569.521>
LayerCount: 2
Fore
SplineSet
513 712 m 2
 530.333333333 712 541.5 709.833333333 546.5 705.5 c 0
 551.5 701.166666667 555.333333333 695.333333333 558 688 c 0
 561.333333333 679.333333333 565.166666667 669.5 569.5 658.5 c 0
 573.833333333 647.5 577.333333333 636.333333333 580 625 c 0
 592 582.333333333 609.333333333 534.5 632 481.5 c 0
 654.666666667 428.5 682.166666667 373.833333333 714.5 317.5 c 0
 746.833333333 261.166666667 783.5 206.5 824.5 153.5 c 0
 865.5 100.5 910.333333333 52.6666666667 959 10 c 0
 963 6 965 2.66666666667 965 0 c 0
 965 -4.66666666667 961.5 -9.33333333333 954.5 -14 c 0
 947.5 -18.6666666667 940.166666667 -22.5 932.5 -25.5 c 0
 924.833333333 -28.5 920 -30 918 -30 c 0
 912.666666667 -30 908.333333333 -28.3333333333 905 -25 c 0
 841.666666667 37.6666666667 785.5 105.666666667 736.5 179 c 0
 687.5 252.333333333 646.166666667 326 612.5 400 c 0
 578.833333333 474 552.666666667 542.666666667 534 606 c 0
 528 627.333333333 522.833333333 643.333333333 518.5 654 c 0
 514.166666667 664.666666667 509.833333333 672.666666667 505.5 678 c 0
 501.166666667 683.333333333 495.666666667 688 489 692 c 0
 485 694 483 697 483 701 c 0
 483 707.666666667 491.333333333 711.333333333 508 712 c 2
 513 712 l 2
404 537 m 1
 374 403.666666667 332.333333333 292.5 279 203.5 c 0
 225.666666667 114.5 161.333333333 39.3333333333 86 -22 c 0
 73.3333333333 -32.6666666667 63 -38 55 -38 c 0
 49.6666666667 -38 47 -35.6666666667 47 -31 c 0
 47 -22.3333333333 53.6666666667 -11.3333333333 67 2 c 0
 116.333333333 50.6666666667 157.666666667 100.5 191 151.5 c 0
 224.333333333 202.5 251.333333333 251.666666667 272 299 c 0
 292.666666667 346.333333333 308.333333333 389 319 427 c 0
 329.666666667 465 337 495.5 341 518.5 c 0
 345 541.5 347 553.666666667 347 555 c 0
 347 557.666666667 346.833333333 560.333333333 346.5 563 c 0
 346.166666667 565.666666667 346 568.333333333 346 571 c 0
 346 577 348.666666667 580 354 580 c 0
 360 580 366.833333333 578 374.5 574 c 0
 382.166666667 570 389 565 395 559 c 0
 401 553 404 547.333333333 404 542 c 2
 404 537 l 1
EndSplineSet
Validated: 1
EndChar

StartChar: uniE008
Encoding: 57352 57352 8
Width: 1000
Flags: W
HStem: -44 53<688.699 876.313> 455 46<147.379 391.141>
VStem: 431 56<527.595 779.293> 620 54<17.8101 260.406> 920 33<101.77 224.523>
LayerCount: 2
Fore
SplineSet
953 177 m 2
 952.333333333 159 951.166666667 138.333333333 949.5 115 c 0
 947.833333333 91.6666666667 944.333333333 67.3333333333 939 42 c 0
 935 19.3333333333 927.5 1.83333333333 916.5 -10.5 c 0
 905.5 -22.8333333333 888.166666667 -31.5 864.5 -36.5 c 0
 840.833333333 -41.5 807.333333333 -44 764 -44 c 0
 748.666666667 -44 732.666666667 -43.1666666667 716 -41.5 c 0
 699.333333333 -39.8333333333 683.666666667 -36 669 -30 c 0
 654.333333333 -24 642.5 -14.8333333333 633.5 -2.5 c 0
 624.5 9.83333333333 620 26.6666666667 620 48 c 0
 620 49.3333333333 620.166666667 51 620.5 53 c 0
 620.833333333 55 621 57 621 59 c 2
 665 494 l 1
 461 477 l 1
 454.333333333 440.333333333 446.166666667 405 436.5 371 c 0
 426.833333333 337 416 305.333333333 404 276 c 0
 384 227.333333333 360.333333333 184.166666667 333 146.5 c 0
 305.666666667 108.833333333 277.333333333 76.6666666667 248 50 c 0
 218.666666667 23.3333333333 191.166666667 1.5 165.5 -15.5 c 0
 139.833333333 -32.5 118.166666667 -45 100.5 -53 c 0
 82.8333333333 -61 72 -65 68 -65 c 0
 62 -65 59 -62.6666666667 59 -58 c 0
 59 -51.3333333333 65 -44 77 -36 c 0
 139 5.33333333333 189.833333333 47.8333333333 229.5 91.5 c 0
 269.166666667 135.166666667 300.5 178.833333333 323.5 222.5 c 0
 346.5 266.166666667 364.166666667 309.166666667 376.5 351.5 c 0
 388.833333333 393.833333333 398.666666667 434.333333333 406 473 c 1
 208 457 l 2
 203.333333333 456.333333333 198.833333333 455.833333333 194.5 455.5 c 0
 190.166666667 455.166666667 186.333333333 455 183 455 c 0
 174.333333333 455 167.666666667 457 163 461 c 0
 156.333333333 465.666666667 151 471.166666667 147 477.5 c 0
 143 483.833333333 140.333333333 490 139 496 c 0
 138.333333333 497.333333333 138 499 138 501 c 256
 138 503 139.666666667 504 143 504 c 2
 146 504 l 2
 159.333333333 502 170.666666667 501 180 501 c 0
 184.666666667 501 189 501.166666667 193 501.5 c 0
 197 501.833333333 201 502 205 502 c 2
 414 519 l 1
 420 555 424.333333333 590.5 427 625.5 c 0
 429.666666667 660.5 431 693.333333333 431 724 c 0
 431 735.333333333 430.166666667 744.666666667 428.5 752 c 0
 426.833333333 759.333333333 424.333333333 768.333333333 421 779 c 1
 421 781 l 2
 421 785.666666667 424.666666667 788 432 788 c 0
 437.333333333 788 444.333333333 786.666666667 453 784 c 0
 461.666666667 781.333333333 469.5 777.5 476.5 772.5 c 0
 483.5 767.5 487 761 487 753 c 0
 487 716.333333333 485.333333333 678.5 482 639.5 c 0
 478.666666667 600.5 474.333333333 562 469 524 c 1
 675 541 l 1
 683 541 l 2
 698.333333333 541 708.833333333 537.833333333 714.5 531.5 c 0
 720.166666667 525.166666667 723 519.333333333 723 514 c 0
 723 510 722.333333333 505.833333333 721 501.5 c 0
 719.666666667 497.166666667 718.666666667 493 718 489 c 2
 675 71 l 2
 674.333333333 68.3333333333 674 65.8333333333 674 63.5 c 0
 674 60 674 60 674 57 c 0
 674 36.3333333333 681.5 23.1666666667 696.5 17.5 c 0
 711.5 11.8333333333 735.666666667 9 769 9 c 0
 804.333333333 9 829.833333333 11 845.5 15 c 0
 861.166666667 19 871.666666667 24.5 877 31.5 c 0
 882.333333333 38.5 886.666666667 47 890 57 c 0
 893.333333333 65.6666666667 897 77.3333333333 901 92 c 0
 905 106.666666667 908.833333333 122 912.5 138 c 0
 916.166666667 154 918.666666667 168 920 180 c 0
 924.666666667 210.666666667 931.666666667 226 941 226 c 0
 949 226 953 212 953 184 c 2
 953 177 l 2
EndSplineSet
Validated: 1
EndChar

StartChar: uniE009
Encoding: 57353 57353 9
Width: 1000
Flags: W
HStem: 371 47<117.982 272.526>
VStem: 467 58<-71.3018 390 554.812 781.602> 474 53<40 390 441 779.969>
LayerCount: 2
Fore
SplineSet
467 -37 m 2xc0
 469 -23.6666666667 470.333333333 -11.5 471 -0.5 c 0
 471.666666667 10.5 472 24 472 40 c 2
 474 390 l 1
 166 373 l 2
 159.333333333 372.333333333 153.666666667 371.833333333 149 371.5 c 0
 144.333333333 371.166666667 140.333333333 371 137 371 c 0
 134.333333333 371 127.833333333 372.833333333 117.5 376.5 c 0
 107.166666667 380.166666667 98.6666666667 392.333333333 92 413 c 0
 91.3333333333 414.333333333 91 416 91 418 c 0
 91 421.333333333 92.6666666667 423 96 423 c 0
 97.3333333333 423 98.3333333333 422.833333333 99 422.5 c 0
 99.6666666667 422.166666667 100.333333333 422 101 422 c 0
 107.666666667 420.666666667 114.666666667 419.666666667 122 419 c 0
 129.333333333 418.333333333 136.333333333 418 143 418 c 2
 155 418 l 1
 474 437 l 1xa0
 475 727 l 2
 475 735.666666667 474.333333333 744.333333333 473 753 c 0
 471.666666667 761.666666667 470 769.333333333 468 776 c 0
 468 776.666666667 467.833333333 777.333333333 467.5 778 c 0
 467.166666667 778.666666667 467 779.333333333 467 780 c 0xc0
 467 784.666666667 470.666666667 787 478 787 c 0
 487.333333333 787 498.166666667 784.166666667 510.5 778.5 c 0
 522.833333333 772.833333333 529 765.666666667 529 757 c 2
 527 441 l 1
 810 457 l 2
 820.666666667 457.666666667 830.5 458.666666667 839.5 460 c 0
 848.5 461.333333333 857.666666667 463.333333333 867 466 c 0
 869.666666667 467.333333333 872.333333333 468 875 468 c 0
 878.333333333 468 883.666666667 466 891 462 c 0
 898.333333333 458 905.166666667 452.833333333 911.5 446.5 c 0
 917.833333333 440.166666667 921 433.333333333 921 426 c 256
 921 418.666666667 916.666666667 414.333333333 908 413 c 2
 527 392 l 1xa0
 525 -59 l 2
 525 -71.6666666667 519.666666667 -78 509 -78 c 0
 501 -78 492 -74.3333333333 482 -67 c 0
 472 -59.6666666667 467 -51.3333333333 467 -42 c 2
 467 -37 l 2xc0
EndSplineSet
Validated: 1
EndChar

StartChar: uniE014
Encoding: 57364 57364 10
Width: 1000
Flags: HW
LayerCount: 2
Fore
SplineSet
762.853515625 -13.7626953125 m 0
 761.413931731 -13.7626953125 759.974347837 -13.7626953125 758.534763944 -13.7626953125 c 0
 703.395538491 3.15020077462 647.160580798 28.2539343219 589.126322277 61.6658520471 c 0
 577.65781091 68.0848597977 568.554763249 71.1435546875 562.00390625 71.1435546875 c 0
 553.730840179 71.1435546875 550.61328125 68.2063756958 550.61328125 62.0078125 c 0
 550.61328125 44.8635901437 603.10844516 4.44097570684 616.091403499 -5.29029725925 c 0
 645.530003315 -27.3505240876 692.922052781 -60.5408195079 735.546682785 -79.5304963048 c 0
 754.182553844 -87.8319827307 768.299621393 -91.8857421875 777.58203125 -91.8857421875 c 0
 790.37601667 -91.8857421875 801.880467221 -86.6212682538 812.295150767 -75.7964531414 c 0
 826.329078641 -62.1194908171 835.301738601 -46.4333052097 839.232022941 -28.7274363707 c 0
 862.116750123 73.4242871573 869.086258514 104.534437114 881.384577978 188.268219901 c 0
 898.43703485 304.359973436 912.743730818 436.739891643 920.197765913 564.604321883 c 0
 922.522884481 591.198183499 929.567382812 594.454591058 929.567382812 609.02734375 c 0
 929.567382812 615.486709143 925.009632824 622.919302918 914.908032535 631.13838466 c 0
 905.03666232 639.169027483 892.808184397 643.216796875 878.0078125 643.216796875 c 2
 872.716802099 643.216796875 l 1
 286.235117234 605.376572682 l 1
 297.727411683 622.300879234 297.727411683 622.300879234 301.337108831 629.266313089 c 0
 303.191743337 632.84509919 305.919095111 638.107869616 310.358510524 646.464555256 c 0
 310.938125603 647.555514763 360.219211147 741.098503383 364.35546875 757.576171875 c 1
 364.35546875 785.638262963 304.944722268 815.428710938 294.049804688 815.428710938 c 0
 289.18864448 815.428710938 286.676757812 812.759543721 286.676757812 804.901367188 c 2
 286.676757812 793.766601562 l 2
 286.676757812 762.413987751 273.20525949 730.100840691 252.381475055 680.152275751 c 0
 243.220507216 658.178498678 236.038034971 640.952030714 222.266231065 618.42571555 c 0
 191.885325061 568.73158969 159.816915288 520.912976854 136.307327226 489.654976336 c 0
 79.1608291915 413.671593691 79.1608291915 413.671593691 65.5946018136 399.569022331 c 0
 53.1579929589 386.641673714 47.4072265625 376.721966078 47.4072265625 370.333007812 c 0
 47.4072265625 365.108321332 50.0354324349 362.58984375 57.4580078125 362.58984375 c 0
 65.3524767629 362.58984375 79.6805971092 370.302183577 99.7194928745 386.504196398 c 0
 119.857038922 402.785970755 119.857038922 402.785970755 153.624203038 437.796104113 c 0
 170.248482119 455.032322872 170.248482119 455.032322872 195.050327363 484.412559328 c 0
 214.456966839 507.40164143 227.325706397 523.049331367 244.94355134 546.936699062 c 1
 858.701224675 586.112908738 l 1
 856.252185049 540.291980111 849.887927604 427.982927578 832.459511841 281.691017587 c 0
 820.396102201 180.448698226 801.407488322 84.7640739539 775.433629141 -5.52125291492 c 0
 773.354607426 -10.9217079 768.872226358 -13.7626953125 762.853515625 -13.7626953125 c 0
EndSplineSet
EndChar

StartChar: uniE011
Encoding: 57361 57361 11
Width: 1000
Flags: W
HStem: -34 51<343.277 767.969>
VStem: 255 52<53.0846 744.998>
LayerCount: 2
Fore
SplineSet
906 225 m 2
 906 199.666666667 904.666666667 175.833333333 902 153.5 c 0
 899.333333333 131.166666667 897.333333333 108.666666667 896 86 c 0
 895.333333333 57.3333333333 884.833333333 34 864.5 16 c 0
 844.166666667 -2 816.666666667 -13.3333333333 782 -18 c 0
 744.666666667 -22.6666666667 706.666666667 -26.5 668 -29.5 c 0
 629.333333333 -32.5 590.666666667 -34 552 -34 c 0
 487.333333333 -34 424.333333333 -30 363 -22 c 0
 333.666666667 -18 308.5 -6.83333333333 287.5 11.5 c 0
 266.5 29.8333333333 255.666666667 60.6666666667 255 104 c 2
 250 692 l 2
 250 710 246 727 238 743 c 0
 237.333333333 744.333333333 237 745.666666667 237 747 c 0
 237 751 240.666666667 753 248 753 c 0
 260.666666667 753 273.166666667 750.333333333 285.5 745 c 0
 297.833333333 739.666666667 304 733.333333333 304 726 c 2
 307 116 l 2
 307 86 312.666666667 64.8333333333 324 52.5 c 0
 335.333333333 40.1666666667 354.333333333 32 381 28 c 0
 408.333333333 24 436.666666667 21.1666666667 466 19.5 c 0
 495.333333333 17.8333333333 525 17 555 17 c 0
 591.666666667 17 627.833333333 18.3333333333 663.5 21 c 0
 699.166666667 23.6666666667 733.333333333 27.3333333333 766 32 c 0
 783.333333333 34.6666666667 797.5 38.1666666667 808.5 42.5 c 0
 819.5 46.8333333333 828.5 55.1666666667 835.5 67.5 c 0
 842.5 79.8333333333 848.666666667 98.6666666667 854 124 c 0
 859.333333333 149.333333333 864.666666667 184 870 228 c 0
 871.333333333 242 874 252.5 878 259.5 c 0
 882 266.5 886 270 890 270 c 256
 894 270 897.666666667 266.666666667 901 260 c 0
 904.333333333 253.333333333 906 243.333333333 906 230 c 2
 906 225 l 2
EndSplineSet
Validated: 1
EndChar

StartChar: uniE00D
Encoding: 57357 57357 12
Width: 1000
Flags: W
HStem: 366 39<113.283 282.1>
VStem: 348 52<254.878 325.385> 558 24<241.256 277.028> 613 58<465.445 596.353>
LayerCount: 2
Fore
SplineSet
630 391 m 1
 617.333333333 348.333333333 607.333333333 316.166666667 600 294.5 c 0
 592.666666667 272.833333333 586.666666667 258.5 582 251.5 c 0
 577.333333333 244.5 572.666666667 241 568 241 c 0
 561.333333333 241 558 246.333333333 558 257 c 0
 558 261 558.333333333 264.333333333 559 267 c 0
 563.666666667 286.333333333 568.166666667 306.333333333 572.5 327 c 0
 576.833333333 347.666666667 581 368.333333333 585 389 c 1
 387 378 l 1
 400 264 l 1
 400 262 l 2
 400 254.666666667 395.333333333 251 386 251 c 0
 380.666666667 251 373 253.166666667 363 257.5 c 0
 353 261.833333333 348 270.666666667 348 284 c 2
 348 321 l 1
 341 376 l 1
 156 366 l 1
 140 366 l 2
 128 366 119 368.833333333 113 374.5 c 0
 107 380.166666667 101 389.333333333 95 402 c 0
 94.3333333333 402.666666667 94 404 94 406 c 256
 94 408 95.6666666667 409 99 409 c 2
 102 409 l 1
 115.333333333 406.333333333 128 405 140 405 c 2
 154 405 l 1
 337 415 l 1
 323 530 l 2
 322.333333333 538.666666667 321.166666667 545.833333333 319.5 551.5 c 0
 317.833333333 557.166666667 315.333333333 563.333333333 312 570 c 0
 311.333333333 571.333333333 311 573 311 575 c 0
 311 579 314.333333333 581 321 581 c 0
 323.666666667 581 328.666666667 580.5 336 579.5 c 0
 343.333333333 578.5 350.166666667 576.333333333 356.5 573 c 0
 362.833333333 569.666666667 366.333333333 564.666666667 367 558 c 2
 383 418 l 1
 593 430 l 1
 597 452 600.833333333 474.166666667 604.5 496.5 c 0
 608.166666667 518.833333333 611 541 613 563 c 2
 613 568 l 2
 613 572.666666667 612.666666667 577.166666667 612 581.5 c 0
 611.333333333 585.833333333 610.333333333 590.333333333 609 595 c 2
 609 597 l 2
 609 601 612.666666667 603 620 603 c 0
 631.333333333 603 642.666666667 600 654 594 c 0
 665.333333333 588 671 581.666666667 671 575 c 0
 671 573.666666667 668.5 559.333333333 663.5 532 c 0
 658.5 504.666666667 651 471.333333333 641 432 c 1
 811 442 l 2
 820.333333333 442.666666667 828.333333333 443.333333333 835 444 c 0
 841.666666667 444.666666667 848.333333333 446.333333333 855 449 c 0
 857 449.666666667 859 450.166666667 861 450.5 c 0
 863 450.833333333 865 451 867 451 c 0
 879.666666667 451 889 446.333333333 895 437 c 0
 901 427.666666667 904 421.666666667 904 419 c 0
 904 411 898 406.333333333 886 405 c 2
 630 391 l 1
EndSplineSet
Validated: 1
EndChar

StartChar: uniE012
Encoding: 57362 57362 13
Width: 1000
Flags: W
HStem: 506 42<147.504 353.75> 540 50<714.75 859.125>
VStem: 463 60 472 50<23.8438 485 566 801.438>
LayerCount: 2
Fore
SplineSet
522 -60 m 2x50
 522 -71.3333333333 517 -77 507 -77 c 0
 505.666666667 -77 501.333333333 -75.8333333333 494 -73.5 c 0
 486.666666667 -71.1666666667 479.833333333 -67.3333333333 473.5 -62 c 0
 467.166666667 -56.6666666667 464 -49.6666666667 464 -41 c 0
 464 -39.6666666667 464.166666667 -38.3333333333 464.5 -37 c 0
 464.833333333 -35.6666666667 465 -34.6666666667 465 -34 c 0
 467.666666667 -14 469.5 5 470.5 23 c 0
 471.5 41 472 59 472 77 c 2
 472 77 472 77 472 102.5 c 0x50
 472 119.5 472.166666667 141.833333333 472.5 169.5 c 0
 472.833333333 197.166666667 473.166666667 227.166666667 473.5 259.5 c 0
 473.833333333 291.833333333 474.166666667 323.333333333 474.5 354 c 0
 474.833333333 384.666666667 475.166666667 411.833333333 475.5 435.5 c 0
 475.833333333 459.166666667 476 475.666666667 476 485 c 1
 448.666666667 434.333333333 414.5 383 373.5 331 c 0
 332.5 279 288.166666667 230.5 240.5 185.5 c 0
 192.833333333 140.5 145 102.666666667 97 72 c 2
 92 69 l 2
 79.3333333333 62.3333333333 70 59 64 59 c 256
 58 59 55 61.3333333333 55 66 c 0
 55 74 65.6666666667 86.3333333333 87 103 c 0
 150.333333333 150.333333333 211.833333333 207.333333333 271.5 274 c 0
 331.166666667 340.666666667 390.333333333 422.333333333 449 519 c 1
 215 507 l 2
 209 506.333333333 203.666666667 506 199 506 c 0
 192 506 192 506 187 506 c 0
 185 506 181 506.5 175 507.5 c 0
 169 508.5 162.666666667 511.666666667 156 517 c 0
 149.333333333 522.333333333 144 531 140 543 c 0
 139.333333333 544.333333333 139 546.333333333 139 549 c 0
 139 552.333333333 140.666666667 554 144 554 c 0
 145.333333333 554 146.333333333 553.833333333 147 553.5 c 0
 147.666666667 553.166666667 148.333333333 553 149 553 c 0
 156.333333333 551 163.5 549.666666667 170.5 549 c 0
 177.5 548.333333333 184.333333333 548 191 548 c 2
 203 548 l 1
 471 563 l 1
 471 744 l 2
 471 762 468.333333333 780.333333333 463 799 c 1
 463 802 l 2
 463 806.666666667 466.333333333 809 473 809 c 0
 475.666666667 809 481 807.833333333 489 805.5 c 0
 497 803.166666667 504.666666667 799.666666667 512 795 c 0
 519.333333333 790.333333333 523 783.666666667 523 775 c 2
 523 566 l 1xa0
 755 579 l 2
 765.666666667 579.666666667 775.5 580.666666667 784.5 582 c 0
 793.5 583.333333333 802.666666667 585.333333333 812 588 c 0
 816 589.333333333 819 590 821 590 c 0
 831 590 841.166666667 585.333333333 851.5 576 c 0
 861.833333333 566.666666667 867 559 867 553 c 0
 867 545.666666667 862.333333333 541.333333333 853 540 c 2
 537 524 l 1
 578.333333333 468.666666667 620.333333333 417.333333333 663 370 c 0
 705.666666667 322.666666667 751.5 279.666666667 800.5 241 c 0
 849.5 202.333333333 903.666666667 167.666666667 963 137 c 0
 964.333333333 136.333333333 966.333333333 134.833333333 969 132.5 c 0
 971.666666667 130.166666667 973 127.333333333 973 124 c 0
 973 122 970.5 118.333333333 965.5 113 c 0
 960.5 107.666666667 954.666666667 102.666666667 948 98 c 0
 941.333333333 93.3333333333 935.333333333 91 930 91 c 0
 925.333333333 91 921.333333333 92.3333333333 918 95 c 0
 841.333333333 141 768.5 198.333333333 699.5 267 c 0
 630.5 335.666666667 570.666666667 408.666666667 520 486 c 1
 520.666666667 477.333333333 521.166666667 460 521.5 434 c 0
 521.833333333 408 522 377.166666667 522 341.5 c 0
 522 288 522 288 522 229 c 0
 522 170 522 170 522 115 c 2
 522 -60 l 2x50
EndSplineSet
Validated: 1
EndChar

StartChar: uniE00E
Encoding: 57358 57358 14
Width: 1000
Flags: W
VStem: 88 81.5<320.033 351.903> 470 54<491 646.968>
LayerCount: 2
Fore
SplineSet
200 429 m 1
 190.666666667 403.666666667 180.5 378.666666667 169.5 354 c 0
 158.5 329.333333333 147.666666667 307.333333333 137 288 c 0
 134.333333333 281.333333333 129.333333333 278 122 278 c 0
 115.333333333 278 108 281.333333333 100 288 c 0
 92 294.666666667 88 301.333333333 88 308 c 0
 88 311.333333333 89 315 91 319 c 0
 101.666666667 336.333333333 112.5 356.5 123.5 379.5 c 0
 134.5 402.5 144.833333333 426.666666667 154.5 452 c 0
 164.166666667 477.333333333 172.333333333 501.333333333 179 524 c 0
 180.333333333 529.333333333 182 533.5 184 536.5 c 0
 186 539.5 189.333333333 541 194 541 c 0
 200.666666667 541 207.833333333 538.666666667 215.5 534 c 0
 223.166666667 529.333333333 227 524 227 518 c 0
 227 516 226.5 513 225.5 509 c 0
 224.5 505 221 493.333333333 215 474 c 1
 470 488 l 1
 469 613 l 2
 469 622.333333333 465.666666667 632 459 642 c 0
 457.666666667 644.666666667 457 646.333333333 457 647 c 0
 457 651.666666667 462 654 472 654 c 0
 483.333333333 654 495 651.833333333 507 647.5 c 0
 519 643.166666667 525 637 525 629 c 2
 524 491 l 1
 870 510 l 1
 876 510 l 2
 886 510 895.5 507.333333333 904.5 502 c 0
 913.5 496.666666667 918 490.333333333 918 483 c 0
 918 478.333333333 916.333333333 474 913 470 c 0
 909.666666667 466 907 462.333333333 905 459 c 0
 896.333333333 443 886.333333333 426 875 408 c 0
 863.666666667 390 852.166666667 372.833333333 840.5 356.5 c 0
 828.833333333 340.166666667 817.833333333 326.833333333 807.5 316.5 c 0
 797.166666667 306.166666667 789 301 783 301 c 0
 778.333333333 301 776 304 776 310 c 0
 776 318 780.333333333 330.333333333 789 347 c 0
 799 364.333333333 808.833333333 383 818.5 403 c 0
 828.166666667 423 837.333333333 443.333333333 846 464 c 1
 200 429 l 1
EndSplineSet
Validated: 1
EndChar

StartChar: uniE016
Encoding: 57366 57366 15
Width: 1000
Flags: W
HStem: 598 45<129.984 271>
VStem: 489 54.5<-19 617>
LayerCount: 2
Fore
SplineSet
486 617 m 1
 171 598 l 1
 159 598 l 2
 149.666666667 598 139.833333333 599.833333333 129.5 603.5 c 0
 119.166666667 607.166666667 111.333333333 619.333333333 106 640 c 0
 105.333333333 641.333333333 105 643 105 645 c 0
 105 647.666666667 106.666666667 649 110 649 c 0
 110.666666667 649 111.333333333 648.833333333 112 648.5 c 0
 112.666666667 648.166666667 113.333333333 648 114 648 c 0
 120 646.666666667 126.333333333 645.5 133 644.5 c 0
 139.666666667 643.5 146.333333333 643 153 643 c 2
 159 643 l 1
 815 684 l 2
 823 684.666666667 829.833333333 685.333333333 835.5 686 c 0
 841.166666667 686.666666667 846.666666667 688 852 690 c 0
 856 691.333333333 858.666666667 692 860 692 c 0
 864 692 869.166666667 690 875.5 686 c 0
 881.833333333 682 887.5 677 892.5 671 c 0
 897.5 665 900 659.333333333 900 654 c 0
 900 646.666666667 894.333333333 642.333333333 883 641 c 2
 540 620 l 1
 543 -6 l 2
 543 -11.3333333333 543.166666667 -16.6666666667 543.5 -22 c 0
 543.833333333 -27.3333333333 544 -32.6666666667 544 -38 c 0
 544 -46.6666666667 541.333333333 -56.5 536 -67.5 c 0
 530.666666667 -78.5 519.333333333 -84 502 -84 c 0
 489.333333333 -84 474.333333333 -79.3333333333 457 -70 c 0
 400.333333333 -40.6666666667 358.5 -16.8333333333 331.5 1.5 c 0
 304.5 19.8333333333 291 34.3333333333 291 45 c 0
 291 51 294.666666667 54 302 54 c 256
 309.333333333 54 318.333333333 51 329 45 c 0
 352.333333333 32.3333333333 378.333333333 20.3333333333 407 9 c 0
 435.666666667 -2.33333333333 463 -11.6666666667 489 -19 c 1
 486 617 l 1
EndSplineSet
Validated: 1
EndChar

StartChar: uniE010
Encoding: 57360 57360 16
Width: 1000
Flags: HW
HStem: 414 45<282 398.038>
VStem: 236 51.5<461.643 659>
LayerCount: 2
Fore
SplineSet
892.782226562 557.724609375 m 1
 282.34765625 521.974609375 l 1
 281.633789062 510.241210938 277.353515625 434.525390625 275.927734375 422.424804688 c 0
 274.500976562 410.325195312 273.07421875 398.409179688 271.647460938 386.674804688 c 0
 262.374023438 319.94140625 246.681640625 258.158203125 224.567382812 201.325195312 c 0
 202.454101562 144.491210938 178.557617188 95.1748046875 152.877929688 53.375 c 0
 127.197265625 11.5751953125 103.478515625 -20.875 81.72265625 -43.974609375 c 0
 59.9658203125 -67.0751953125 45.1640625 -78.625 37.3173828125 -78.625 c 0
 33.037109375 -78.625 30.8974609375 -76.05859375 30.8974609375 -70.9248046875 c 0
 30.8974609375 -67.2587890625 32.32421875 -61.94140625 35.177734375 -54.974609375 c 0
 38.03125 -48.0087890625 43.0234375 -39.7587890625 50.1572265625 -30.224609375 c 0
 89.3916015625 26.2412109375 121.133789062 81.05859375 145.387695312 134.224609375 c 0
 169.641601562 187.391601562 188.1875 242.575195312 201.02734375 299.775390625 c 0
 213.8671875 356.974609375 222.606445312 419.674804688 227.2421875 487.875 c 0
 231.87890625 556.075195312 234.197265625 633.44140625 234.197265625 719.974609375 c 0
 234.197265625 730.241210938 233.662109375 740.325195312 232.592773438 750.224609375 c 0
 231.522460938 760.125 228.84765625 770.94140625 224.567382812 782.674804688 c 0
 222.427734375 787.075195312 221.357421875 791.108398438 221.357421875 794.775390625 c 0
 221.357421875 799.909179688 224.2109375 802.474609375 229.91796875 802.474609375 c 0
 234.911132812 802.474609375 242.401367188 800.641601562 252.387695312 796.974609375 c 0
 262.374023438 793.30859375 275.571289062 787.075195312 291.977539062 778.275390625 c 1
 873.522460938 815.125 l 2
 883.508789062 815.125 893.852539062 811.825195312 904.552734375 805.224609375 c 0
 915.252929688 798.625 920.602539062 790.55859375 920.602539062 781.025390625 c 0
 920.602539062 777.358398438 919.888671875 774.05859375 918.462890625 771.125 c 0
 917.036132812 768.19140625 915.814453125 765.27734375 915.252929688 762.325195312 c 2
 886.362304688 610.525390625 l 1
 896.348632812 603.19140625 903.303710938 596.409179688 907.227539062 590.174804688 c 0
 911.151367188 583.94140625 913.112304688 578.625 913.112304688 574.224609375 c 0
 913.112304688 569.091796875 911.329101562 565.241210938 907.762695312 562.674804688 c 0
 904.196289062 560.108398438 899.916015625 558.458984375 894.922851562 557.724609375 c 2
 892.782226562 557.724609375 l 1
858.54296875 762.325195312 m 1
 291.977539062 727.674804688 l 1
 291.263671875 693.94140625 290.372070312 658.55859375 289.302734375 621.525390625 c 0
 288.232421875 584.491210938 289.481445312 610.341796875 286.627929688 571.474609375 c 1
 830.72265625 605.025390625 l 1
 858.54296875 762.325195312 l 1
EndSplineSet
EndChar

StartChar: uniE019
Encoding: 57369 57369 17
Width: 1000
Flags: W
VStem: 203 51<397.022 633>
LayerCount: 2
Fore
SplineSet
259 633 m 1
 258.333333333 589.666666667 256.666666667 541.166666667 254 487.5 c 0
 251.333333333 433.833333333 246.666666667 382.333333333 240 333 c 0
 234.666666667 291.666666667 225.833333333 251.333333333 213.5 212 c 0
 201.166666667 172.666666667 187 135.833333333 171 101.5 c 0
 155 67.1666666667 139.166666667 37.1666666667 123.5 11.5 c 0
 107.833333333 -14.1666666667 93.5 -34.3333333333 80.5 -49 c 0
 67.5 -63.6666666667 57.6666666667 -71 51 -71 c 0
 47 -71 45 -68.3333333333 45 -63 c 0
 45 -59.6666666667 45.8333333333 -55.1666666667 47.5 -49.5 c 0
 49.1666666667 -43.8333333333 52.3333333333 -37.3333333333 57 -30 c 0
 99 40 130.5 110.666666667 151.5 182 c 0
 172.5 253.333333333 186.333333333 325 193 397 c 0
 199.666666667 469 203 541.333333333 203 614 c 0
 203 640 200.666666667 665 196 689 c 0
 195.333333333 691 195 693 195 695 c 0
 195 698 195 698 195 700 c 0
 195 705.333333333 197.333333333 708 202 708 c 0
 206 708 212.833333333 706 222.5 702 c 0
 232.166666667 698 245.333333333 691.333333333 262 682 c 1
 762 714 l 2
 774 715.333333333 784 716.666666667 792 718 c 0
 800 719.333333333 808.333333333 721.333333333 817 724 c 0
 821 725.333333333 824.333333333 726 827 726 c 256
 829.666666667 726 834.666666667 724.333333333 842 721 c 0
 849.333333333 717.666666667 856.166666667 713 862.5 707 c 0
 868.833333333 701 872 694.333333333 872 687 c 0
 872 677 867 671.333333333 857 670 c 2
 259 633 l 1
EndSplineSet
Validated: 1
EndChar

StartChar: uniE02C
Encoding: 57388 57388 18
Width: 1000
Flags: HWO
HStem: 196 43<76.984 261.235> 213 44<333 473 523 631.421> 232 51<783.211 939.067> 374 43<308 426.818>
VStem: 259 52<334.23 374> 473 50<-78.8435 211 257 382>
LayerCount: 2
Fore
SplineSet
523 405 m 1x5c
 524 -77 l 2
 524 -81 522.666992188 -84.6669921875 520 -88 c 0
 517.333007812 -91.3330078125 513.333007812 -93 508 -93 c 0
 504.666992188 -93 499.666992188 -91.3330078125 493 -88 c 0
 483 -81.3330078125 476.166992188 -76 472.5 -72 c 0
 468.833007812 -68 467 -63.6669921875 467 -59 c 0
 467 -57.6669921875 467.166992188 -56.5 467.5 -55.5 c 0
 467.833007812 -54.5 468 -53.6669921875 468 -53 c 0
 469.333007812 -43 470.333007812 -31.5 471 -18.5 c 0
 471.666992188 -5.5 472 4 472 10 c 2
 473 403 l 1
 121 388 l 1
 106 388 l 2
 96.6669921875 388 86.8330078125 389.833007812 76.5 393.5 c 0
 66.1669921875 397.166992188 58 408.333007812 52 427 c 0
 51.3330078125 428.333007812 51 430 51 432 c 0
 51 434.666992188 52.6669921875 436 56 436 c 2
 60 436 l 2
 66.6669921875 434 73.6669921875 432.666992188 81 432 c 0
 88.3330078125 431.333007812 95.3330078125 431 102 431 c 2
 113 431 l 1x9c
 473 448 l 1
 473.200195312 541.200195312 l 1
 345.200195312 534.799804688 l 1
 347.599609375 511.599609375 l 1
 347.599609375 509.200195312 l 2
 347.599609375 502.799804688 344.666015625 499.599609375 338.799804688 499.599609375 c 0
 336.666015625 499.599609375 332.93359375 500.266601562 327.599609375 501.599609375 c 0
 322.266601562 502.93359375 317.333984375 505.466796875 312.799804688 509.200195312 c 0
 308.266601562 512.93359375 306 517.733398438 306 523.599609375 c 2
 306 534.799804688 l 2
 306 540.400390625 306 540.400390625 306 546.400390625 c 0
 306 550.400390625 305.733398438 554.799804688 305.200195312 559.599609375 c 2
 288.400390625 770 l 2
 287.333984375 783.866210938 283.599609375 796.666015625 277.200195312 808.400390625 c 0
 274.533203125 812.666015625 273.200195312 816.133789062 273.200195312 818.799804688 c 256
 273.200195312 821.466796875 275.599609375 822.799804688 280.400390625 822.799804688 c 0
 287.866210938 822.799804688 303.333984375 818.266601562 326.799804688 809.200195312 c 1
 681.200195312 832.400390625 l 1
 686 832.400390625 l 2
 691.866210938 832.400390625 698.266601562 830.266601562 705.200195312 826 c 0
 711.599609375 821.200195312 714.799804688 815.866210938 714.799804688 810 c 0
 714.799804688 806.266601562 714 802.93359375 712.400390625 800 c 0
 710.799804688 797.06640625 709.733398438 794.533203125 709.200195312 792.400390625 c 2
 688.400390625 589.200195312 l 1
 702.266601562 576.93359375 709.200195312 567.866210938 709.200195312 562 c 0
 709.200195312 556.666015625 703.360351562 552.986328125 691.599609375 552.400390625 c 2
 523 544 l 1
 523 449 l 1x5c
 839 464 l 2
 850.333007812 464.666992188 860.166992188 465.666992188 868.5 467 c 0
 876.833007812 468.333007812 885.666992188 470.333007812 895 473 c 0
 899 474.333007812 902 475 904 475 c 0
 909.333007812 475 915.5 472.666992188 922.5 468 c 0
 929.5 463.333007812 935.5 457.833007812 940.5 451.5 c 0
 945.5 445.166992188 948 440 948 436 c 0
 948 429.333007812 943.666992188 425.333007812 935 424 c 2x3c
 523 405 l 1x5c
668.400390625 797.200195312 m 1
 324.400390625 774.799804688 l 1
 331.599609375 692.400390625 l 1
 661.200195312 713.200195312 l 1
 668.400390625 797.200195312 l 1
658.799804688 679.599609375 m 1
 334.799804688 660.400390625 l 1
 342 569.200195312 l 1
 650.799804688 586.799804688 l 1
 658.799804688 679.599609375 l 1
EndSplineSet
EndChar

StartChar: uniE02F
Encoding: 57391 57391 19
Width: 1000
Flags: W
HStem: 397 47<326.335 546.523>
VStem: 199 57<-63.2073 342.5> 209 49<59 464> 309 61<717.838 788.076> 572 57<459.407 791.217>
LayerCount: 2
Fore
SplineSet
199 -29 m 2xd8
 201 -11 202 3.5 202 14.5 c 0
 202 25.5 202.333333333 40.3333333333 203 59 c 2
 209 464 l 1
 198.333333333 448 185.5 429.666666667 170.5 409 c 0
 155.5 388.333333333 140 368.5 124 349.5 c 0
 108 330.5 93.1666666667 314.666666667 79.5 302 c 0
 65.8333333333 289.333333333 55.3333333333 283 48 283 c 0
 42.6666666667 283 40 285.666666667 40 291 c 0
 40 297.666666667 44.6666666667 306.666666667 54 318 c 0
 86 356.666666667 116.666666667 399.333333333 146 446 c 0
 175.333333333 492.666666667 202.833333333 541.166666667 228.5 591.5 c 0
 254.166666667 641.833333333 277 691.666666667 297 741 c 0
 300.333333333 748.333333333 303 756.166666667 305 764.5 c 0
 307 772.833333333 308.333333333 783 309 795 c 0
 309 799.666666667 312 802 318 802 c 256
 324 802 331 799.5 339 794.5 c 0
 347 789.5 354.166666667 783.833333333 360.5 777.5 c 0
 366.833333333 771.166666667 370 765.333333333 370 760 c 0
 370 756.666666667 366.166666667 746.833333333 358.5 730.5 c 0
 350.833333333 714.166666667 341.166666667 694.666666667 329.5 672 c 0
 317.833333333 649.333333333 305.666666667 626.333333333 293 603 c 0
 280.333333333 579.666666667 268.666666667 559 258 541 c 1xb8
 256 -57 l 2
 256 -67 252.333333333 -72 245 -72 c 0
 241 -72 235.333333333 -70.3333333333 228 -67 c 0
 220.666666667 -63.6666666667 214 -59 208 -53 c 0
 202 -47 199 -40.3333333333 199 -33 c 2
 199 -29 l 2xd8
637 414 m 1
 669 325.333333333 714.5 244 773.5 170 c 0
 832.5 96 900.333333333 30.3333333333 977 -27 c 0
 981 -29.6666666667 983 -32.6666666667 983 -36 c 0
 983 -37.3333333333 980.5 -40.6666666667 975.5 -46 c 0
 970.5 -51.3333333333 964.5 -56.3333333333 957.5 -61 c 0
 950.5 -65.6666666667 944.333333333 -68 939 -68 c 0
 935 -68 931.333333333 -66.3333333333 928 -63 c 0
 850.666666667 3 783.333333333 74.6666666667 726 152 c 0
 668.666666667 229.333333333 626 314 598 406 c 1
 587.333333333 338 570.166666667 278 546.5 226 c 0
 522.833333333 174 496.5 129.166666667 467.5 91.5 c 0
 438.5 53.8333333333 410.5 22.6666666667 383.5 -2 c 0
 356.5 -26.6666666667 334.333333333 -45.6666666667 317 -59 c 0
 307.666666667 -66.3333333333 299.333333333 -70 292 -70 c 0
 286.666666667 -70 284 -67.3333333333 284 -62 c 0
 284 -53.3333333333 290 -44 302 -34 c 0
 356 14.6666666667 399.333333333 64.1666666667 432 114.5 c 0
 464.666666667 164.833333333 490.166666667 214.833333333 508.5 264.5 c 0
 526.833333333 314.166666667 540.333333333 362 549 408 c 1
 396 399 l 2
 390.666666667 398.333333333 385.5 397.833333333 380.5 397.5 c 0
 375.5 397.166666667 371.333333333 397 368 397 c 0
 356.666666667 397 347 400.166666667 339 406.5 c 0
 331 412.833333333 325 419.666666667 321 427 c 0
 317 434.333333333 315 439.666666667 315 443 c 0
 315 447 317.333333333 449 322 449 c 0
 322.666666667 449 323.5 448.833333333 324.5 448.5 c 0
 325.5 448.166666667 326.333333333 448 327 448 c 0
 334.333333333 446.666666667 341.666666667 445.666666667 349 445 c 0
 356.333333333 444.333333333 363.333333333 444 370 444 c 0
 373.333333333 444 376.5 444.166666667 379.5 444.5 c 0
 382.5 444.833333333 385.333333333 445 388 445 c 2
 557 454 l 1
 564.333333333 505.333333333 568.666666667 555.666666667 570 605 c 0
 571.333333333 654.333333333 572 700.333333333 572 743 c 0
 572 749.666666667 571.333333333 756.833333333 570 764.5 c 0
 568.666666667 772.166666667 565.666666667 781 561 791 c 0
 560.333333333 792.333333333 560 793.666666667 560 795 c 0
 560 799 563.666666667 801 571 801 c 0
 573 801 578.833333333 799.833333333 588.5 797.5 c 0
 598.166666667 795.166666667 607.333333333 791.666666667 616 787 c 0
 624.666666667 782.333333333 629 775.666666667 629 767 c 0
 629 716.333333333 627.5 664.833333333 624.5 612.5 c 0
 621.5 560.166666667 616.333333333 508.333333333 609 457 c 1
 808 468 l 2
 821.333333333 468.666666667 832.666666667 470.166666667 842 472.5 c 0
 851.333333333 474.833333333 860 477.666666667 868 481 c 0
 872 483 875.333333333 484 878 484 c 0
 884.666666667 484 891.666666667 481.333333333 899 476 c 0
 906.333333333 470.666666667 912.666666667 464.833333333 918 458.5 c 0
 923.333333333 452.166666667 926 446.666666667 926 442 c 0
 926 435.333333333 921 431.333333333 911 430 c 2
 637 414 l 1
EndSplineSet
Validated: 1
EndChar

StartChar: uniE030
Encoding: 57392 57392 20
Width: 1000
Flags: W
HStem: -56 45<906.255 952.801> 424 45<129.188 339.75> 461 53<723.882 874.284>
VStem: 462 58<497.522 764.731>
LayerCount: 2
Fore
SplineSet
518 444 m 1xb0
 567.333333333 341.333333333 626.5 252.166666667 695.5 176.5 c 0
 764.5 100.833333333 848.333333333 38.3333333333 947 -11 c 0
 955 -15.6666666667 959 -19.6666666667 959 -23 c 0
 959 -27.6666666667 955.333333333 -32.6666666667 948 -38 c 0
 940.666666667 -43.3333333333 933.166666667 -47.6666666667 925.5 -51 c 0
 917.833333333 -54.3333333333 913 -56 911 -56 c 0
 908.333333333 -56 896.833333333 -50.5 876.5 -39.5 c 0
 856.166666667 -28.5 830.166666667 -11.3333333333 798.5 12 c 0
 766.833333333 35.3333333333 732.5 65.5 695.5 102.5 c 0
 658.5 139.5 621.666666667 184 585 236 c 0
 548.333333333 288 514.666666667 348 484 416 c 1
 477.333333333 385.333333333 468.666666667 354.833333333 458 324.5 c 0
 447.333333333 294.166666667 435 265.666666667 421 239 c 0
 394.333333333 189 363 145.333333333 327 108 c 0
 291 70.6666666667 255.166666667 39.5 219.5 14.5 c 0
 183.833333333 -10.5 152.166666667 -29.3333333333 124.5 -42 c 0
 96.8333333333 -54.6666666667 78 -61 68 -61 c 0
 59.3333333333 -61 55 -58.3333333333 55 -53 c 0
 55 -45.6666666667 63.3333333333 -37.6666666667 80 -29 c 0
 136.666666667 1 185 34 225 70 c 0
 265 106 298.166666667 142.5 324.5 179.5 c 0
 350.833333333 216.5 371.666666667 252 387 286 c 0
 402.333333333 320 414 350.5 422 377.5 c 0
 430 404.5 435.666666667 425.333333333 439 440 c 1
 195 426 l 2
 187.666666667 425.333333333 181.333333333 424.833333333 176 424.5 c 0
 170.666666667 424.166666667 166 424 162 424 c 0
 153.333333333 424 145.833333333 427.166666667 139.5 433.5 c 0
 133.166666667 439.833333333 128.166666667 446.666666667 124.5 454 c 0
 120.833333333 461.333333333 119 466.666666667 119 470 c 256
 119 473.333333333 120.666666667 475 124 475 c 0
 125.333333333 475 126.333333333 474.833333333 127 474.5 c 0
 127.666666667 474.166666667 128.333333333 474 129 474 c 0
 136.333333333 472 143.5 470.666666667 150.5 470 c 0
 157.5 469.333333333 164.333333333 469 171 469 c 2
 183 469 l 1xd0
 447 484 l 1
 452.333333333 515.333333333 456.166666667 547.5 458.5 580.5 c 0
 460.833333333 613.5 462 646.666666667 462 680 c 2
 462 719 l 2
 462 724.333333333 461.5 731.333333333 460.5 740 c 0
 459.5 748.666666667 457.666666667 756.666666667 455 764 c 0
 455 765.333333333 454.833333333 766.166666667 454.5 766.5 c 0
 454.166666667 766.833333333 454 767.333333333 454 768 c 0
 454 772.666666667 457 775 463 775 c 0
 468.333333333 775 475.5 773.5 484.5 770.5 c 0
 493.5 767.5 501.666666667 763.333333333 509 758 c 0
 516.333333333 752.666666667 520 746.333333333 520 739 c 2
 520 722 l 2
 520 680.666666667 518.333333333 640.5 515 601.5 c 0
 511.666666667 562.5 507.333333333 524.333333333 502 487 c 1
 770 503 l 2
 780.666666667 503.666666667 790.5 504.666666667 799.5 506 c 0
 808.5 507.333333333 817.666666667 509.333333333 827 512 c 0
 829.666666667 513.333333333 832.333333333 514 835 514 c 0
 839 514 844.666666667 512.166666667 852 508.5 c 0
 859.333333333 504.833333333 866 500.166666667 872 494.5 c 0
 878 488.833333333 881 482.333333333 881 475 c 0
 881 467 876.666666667 462.333333333 868 461 c 2
 518 444 l 1xb0
EndSplineSet
Validated: 1
EndChar

StartChar: uniE032
Encoding: 57394 57394 21
Width: 1000
Flags: W
HStem: 258 45<236 380.909> 284 44<643.417 764>
VStem: 182 57<212.25 258> 466 52<-105.075 269 317 535 583 813.969>
LayerCount: 2
Fore
SplineSet
518 272 m 1x70
 516 -89 l 2
 516 -101.666666667 510.666666667 -108 500 -108 c 0
 492.666666667 -108 484.166666667 -104.333333333 474.5 -97 c 0
 464.833333333 -89.6666666667 460 -81.6666666667 460 -73 c 2
 460 -67 l 2
 462 -53.6666666667 463.333333333 -39.6666666667 464 -25 c 0
 464.666666667 -10.3333333333 465 5 465 21 c 2
 466 269 l 1
 236 258 l 1xb0
 239 222 l 1
 239 221 l 2
 239 217.666666667 237.5 214.333333333 234.5 211 c 0
 231.5 207.666666667 227.333333333 206 222 206 c 0
 214.666666667 206 206.166666667 209.833333333 196.5 217.5 c 0
 186.833333333 225.166666667 182 232.666666667 182 240 c 2
 182 244 l 2
 182.666666667 249.333333333 183.166666667 254.166666667 183.5 258.5 c 0
 183.833333333 262.833333333 184 267.333333333 184 272 c 0
 184 276 183.833333333 280.333333333 183.5 285 c 0
 183.166666667 289.666666667 182.666666667 294.666666667 182 300 c 2
 164 504 l 2
 163.333333333 512 161.833333333 520.833333333 159.5 530.5 c 0
 157.166666667 540.166666667 153.333333333 550.333333333 148 561 c 0
 145.333333333 566.333333333 144 570.666666667 144 574 c 0
 144 578.666666667 147.666666667 581 155 581 c 0
 163.666666667 581 182.666666667 575.666666667 212 565 c 1
 467 580 l 1
 468 761 l 2
 468 769.666666667 467.333333333 778.333333333 466 787 c 0
 464.666666667 795.666666667 463 803.333333333 461 810 c 0
 461 810.666666667 460.833333333 811.333333333 460.5 812 c 0
 460.166666667 812.666666667 460 813.333333333 460 814 c 0
 460 818 463.666666667 820 471 820 c 0
 475.666666667 820 482 819 490 817 c 0
 498 815 505.166666667 812 511.5 808 c 0
 517.833333333 804 521 798.333333333 521 791 c 2
 520 583 l 1
 798 600 l 2
 800.666666667 600 803.166666667 600.166666667 805.5 600.5 c 0
 807.833333333 600.833333333 810 601 812 601 c 0
 823.333333333 601 832.5 596.833333333 839.5 588.5 c 0
 846.5 580.166666667 850 572.333333333 850 565 c 0
 850 561 849.166666667 557.5 847.5 554.5 c 0
 845.833333333 551.5 844.666666667 548.666666667 844 546 c 2
 815 331 l 1
 830.333333333 317 838 305.666666667 838 297 c 256
 838 288.333333333 831.666666667 284 819 284 c 2
 518 272 l 1x70
790 552 m 1
 520 538 l 1
 518 317 l 1
 764 328 l 1x70
 790 552 l 1
467 535 m 1
 212 519 l 1
 232 303 l 1xb0
 466 314 l 1
 467 535 l 1
EndSplineSet
Validated: 1
EndChar

StartChar: uniE034
Encoding: 57396 57396 22
Width: 1000
Flags: W
HStem: 470.04 55.1191<229.174 353.967> 691.854 47.8613<320.33 461.356>
LayerCount: 2
Fore
SplineSet
377.319335938 739.715820312 m 0
 377.487036549 739.715820313 377.65473716 739.715820312 377.822437771 739.715820312 c 2
 641.498428072 756.08099977 l 2
 675.898691699 758.215924794 694.625820089 764.345185218 713.393120842 770.487593781 c 1
 731.210819766 765.56441148 767.879882812 737.08056008 767.879882812 724.859375 c 0
 767.879882812 718.538885952 761.17068668 717.600565311 755.581778207 717.230129292 c 2
 400.335448494 693.667563944 l 2
 392.252428692 693.591092405 385.052703717 691.854492188 381.856445312 691.854492188 c 2
 366.4296875 691.854492188 l 2
 363.063341717 691.854492188 355.8655409 692.973517156 346.443602411 695.744953736 c 0
 340.624340039 697.456453697 330.940680981 703.395432725 319.239041368 714.829373983 c 0
 312.212905489 726.656057927 306.958938833 736.075073708 303.603503171 742.932080739 c 1
 318.072321554 739.542322576 333.584720184 737.900390625 350.09375 737.900390625 c 0
 363.799464362 737.900390625 365.99981103 739.715820312 377.319335938 739.715820312 c 0
297.459960938 525.159179688 m 0
 297.606356751 525.159179687 297.752752565 525.159179688 297.899148379 525.159179688 c 2
 803.242365938 552.524279375 l 1
 807.489283578 553.941259663 809.633775646 554.200195312 814.734375 554.200195312 c 0
 830.52486619 554.200195312 840.385824077 549.5722598 847.957456735 540.737970622 c 0
 858.309794796 528.660564305 860.444335938 521.1953125 860.444335938 521.1953125 c 1
 860.444335938 508.385605679 848.16199864 504.386287134 839.85277459 483.692200624 c 0
 736.41919868 234.25626034 627.748629675 63.8805497357 542.500499253 -46.2317809703 c 0
 532.22218769 -59.5936775973 523.967114691 -63.369367665 517.596911879 -63.5623921729 c 0
 501.035266085 -59.8219057458 487.482388346 -54.6041586672 475.837114651 -47.0696289829 c 0
 469.321697464 -42.8536270819 467.85807068 -39.8381409726 467.742173915 -34.8891712076 c 0
 468.241497679 -32.1938093553 469.086189003 -30.5138547386 469.804561019 -29.5103141606 c 0
 667.036998774 210.073178095 746.915073144 402.032023139 783.417875693 493.289518656 c 2
 786.352921425 500.627172314 l 1
 296.952835892 470.040039062 l 1
 281.124023438 470.040039062 l 2
 250.945578626 470.040039062 234.347559602 476.249465393 228.910945938 481.686079057 c 0
 216.852634949 493.745261853 205.4567384 507.140660135 198.150541714 531.016575908 c 1
 246.159155054 523.556050659 248.430598008 523.345703125 264.7890625 523.345703125 c 0
 281.089403941 523.345703125 285.625305668 525.159179688 297.459960938 525.159179688 c 0
EndSplineSet
Validated: 1
EndChar

StartChar: uniE033
Encoding: 57395 57395 23
Width: 1000
Flags: W
VStem: 522 68<723.227 794.25>
LayerCount: 2
Fore
SplineSet
473 556 m 1
 446.333333333 516 417.333333333 478.333333333 386 443 c 0
 354.666666667 407.666666667 324.666666667 376.5 296 349.5 c 0
 267.333333333 322.5 242.5 301.333333333 221.5 286 c 0
 200.5 270.666666667 187 263 181 263 c 256
 175 263 172 265.333333333 172 270 c 0
 172 278 179.333333333 288.333333333 194 301 c 0
 270.666666667 369.666666667 335.333333333 442.833333333 388 520.5 c 0
 440.666666667 598.166666667 483 675.333333333 515 752 c 0
 517 757.333333333 518.666666667 763.166666667 520 769.5 c 0
 521.333333333 775.833333333 522 782.333333333 522 789 c 2
 522 795 l 2
 522 801.666666667 525.666666667 805 533 805 c 0
 539 805 546.5 803.333333333 555.5 800 c 0
 564.5 796.666666667 572.5 792.333333333 579.5 787 c 0
 586.5 781.666666667 590 776 590 770 c 0
 590 769.333333333 589.833333333 768.833333333 589.5 768.5 c 0
 589.166666667 768.166666667 589 767.666666667 589 767 c 0
 563.666666667 709.666666667 535.666666667 656 505 606 c 1
 756 626 l 2
 759.333333333 626 762.166666667 626.166666667 764.5 626.5 c 0
 766.833333333 626.833333333 769 627 771 627 c 0
 780.333333333 627 789.333333333 623.5 798 616.5 c 0
 806.666666667 609.5 811 601.333333333 811 592 c 0
 811 586.666666667 809.5 581.833333333 806.5 577.5 c 0
 803.5 573.166666667 801.333333333 570.333333333 800 569 c 0
 766.666666667 501.666666667 733.666666667 440.666666667 701 386 c 0
 668.333333333 331.333333333 630 278.333333333 586 227 c 0
 539.333333333 172.333333333 492.5 125 445.5 85 c 0
 398.5 45 355 12.1666666667 315 -13.5 c 0
 275 -39.1666666667 242 -58.1666666667 216 -70.5 c 0
 190 -82.8333333333 175 -89 171 -89 c 0
 163.666666667 -89 160 -86 160 -80 c 0
 160 -76 162.166666667 -71.1666666667 166.5 -65.5 c 0
 170.833333333 -59.8333333333 177.666666667 -54.3333333333 187 -49 c 0
 262.333333333 -3.66666666667 327.333333333 42.6666666667 382 90 c 0
 436.666666667 137.333333333 486.333333333 187.333333333 531 240 c 1
 511 267.333333333 489.333333333 293.5 466 318.5 c 0
 442.666666667 343.5 417.333333333 368 390 392 c 0
 384.666666667 396 382 400.666666667 382 406 c 0
 382 412 385 417.333333333 391 422 c 0
 396.333333333 427.333333333 401.333333333 430 406 430 c 0
 412.666666667 430 431.333333333 416.833333333 462 390.5 c 0
 492.666666667 364.166666667 527.333333333 328 566 282 c 1
 600 326 630.166666667 371 656.5 417 c 0
 682.833333333 463 710 516 738 576 c 1
 473 556 l 1
EndSplineSet
Validated: 1
EndChar

StartChar: uniE031
Encoding: 57393 57393 24
Width: 1000
Flags: W
VStem: 465 60<-53.7935 421.625> 473 49<69 472> 587 62<696.963 761.382>
LayerCount: 2
Fore
SplineSet
465 -20 m 2xa0
 467 -2 468.166666667 12.6666666667 468.5 24 c 0
 468.833333333 35.3333333333 469 50.3333333333 469 69 c 2
 473 472 l 1
 437.666666667 430.666666667 403.666666667 394 371 362 c 0
 338.333333333 330 310.5 305.166666667 287.5 287.5 c 0
 264.5 269.833333333 249 261 241 261 c 0
 235.666666667 261 233 263.333333333 233 268 c 0
 233 270.666666667 234.333333333 274.333333333 237 279 c 0
 239.666666667 283.666666667 244 288.666666667 250 294 c 0
 264 307.333333333 281.666666667 325.5 303 348.5 c 0
 324.333333333 371.5 347.5 397.5 372.5 426.5 c 0
 397.5 455.5 422.5 486 447.5 518 c 0
 472.5 550 495.333333333 581.5 516 612.5 c 0
 536.666666667 643.5 553.5 672.5 566.5 699.5 c 0
 579.5 726.5 586.333333333 749.666666667 587 769 c 0
 587 773 589.333333333 775 594 775 c 0
 599.333333333 775 606.333333333 772.833333333 615 768.5 c 0
 623.666666667 764.166666667 631.5 758.666666667 638.5 752 c 0
 645.5 745.333333333 649 739 649 733 c 0
 649 731 643.833333333 720.666666667 633.5 702 c 0
 623.166666667 683.333333333 608.5 659.5 589.5 630.5 c 0
 570.5 601.5 548 569.666666667 522 535 c 1x60
 525 -48 l 2
 525 -57.3333333333 519.333333333 -62 508 -62 c 0
 502 -62 496 -60 490 -56 c 0
 480.666666667 -50 474.166666667 -45 470.5 -41 c 0
 466.833333333 -37 465 -32 465 -26 c 2
 465 -20 l 2xa0
EndSplineSet
Validated: 1
EndChar

StartChar: uniE036
Encoding: 57398 57398 25
Width: 1000
Flags: W
VStem: 398 62<-81.9648 181.219 575.5 803.615> 406 54<-53.9375 434 464 803.615>
LayerCount: 2
Fore
SplineSet
406 746 m 2x40
 406 764 403.333333333 782.333333333 398 801 c 1
 398 804 l 2
 398 808.666666667 401.666666667 811 409 811 c 0
 420.333333333 811 431.666666667 807.666666667 443 801 c 0
 454.333333333 794.333333333 460 786.333333333 460 777 c 2x80
 460 464 l 1
 464.666666667 471.333333333 469.666666667 475 475 475 c 0
 479 475 492 470.333333333 514 461 c 0
 536 451.666666667 563.666666667 439 597 423 c 0
 630.333333333 407 665.5 388.666666667 702.5 368 c 0
 739.5 347.333333333 775 325.333333333 809 302 c 0
 817.666666667 296 822 289 822 281 c 0
 822 276.333333333 820 269 816 259 c 0
 812 249 806.333333333 244 799 244 c 0
 796.333333333 244 793.333333333 244.833333333 790 246.5 c 0
 786.666666667 248.166666667 783.333333333 250.333333333 780 253 c 0
 735.333333333 284.333333333 685.5 315.333333333 630.5 346 c 0
 575.5 376.666666667 522 403.666666667 470 427 c 0
 466 429 462.666666667 431.333333333 460 434 c 1
 459 -73 l 2
 459 -84.3333333333 454 -90 444 -90 c 0
 435.333333333 -90 425.666666667 -86.3333333333 415 -79 c 0
 404.333333333 -71.6666666667 399 -63.3333333333 399 -54 c 0
 399 -52.6666666667 399.166666667 -51.3333333333 399.5 -50 c 0
 399.833333333 -48.6666666667 400 -47.6666666667 400 -47 c 0
 402.666666667 -27 404.5 -8 405.5 10 c 0
 406.5 28 407 46 407 64 c 2
 406 746 l 2x40
EndSplineSet
Validated: 1
EndChar

StartChar: uniE037
Encoding: 57399 57399 26
Width: 1000
Flags: W
VStem: 353 269
LayerCount: 2
Fore
SplineSet
578 588 m 0
 573.333333333 588 567.666666667 590.666666667 561 596 c 0
 539 618 515.5 639 490.5 659 c 0
 465.5 679 442 697 420 713 c 0
 414 718.333333333 411 723.333333333 411 728 c 0
 411 734 413.166666667 739.333333333 417.5 744 c 0
 421.833333333 748.666666667 426.333333333 751 431 751 c 0
 436.333333333 751 445 747.333333333 457 740 c 0
 469 732.666666667 482.5 723.5 497.5 712.5 c 0
 512.5 701.5 527 690.333333333 541 679 c 0
 555 667.666666667 566.833333333 658.166666667 576.5 650.5 c 0
 586.166666667 642.833333333 591.666666667 638.333333333 593 637 c 0
 599.666666667 631 603 625 603 619 c 256
 603 613 600.333333333 606.333333333 595 599 c 0
 589.666666667 591.666666667 584 588 578 588 c 0
514 391 m 0
 510 391 504.666666667 393.666666667 498 399 c 0
 477.333333333 417 455.333333333 435 432 453 c 0
 408.666666667 471 386 487.666666667 364 503 c 0
 356.666666667 508.333333333 353 513.666666667 353 519 c 0
 353 525 355 530.666666667 359 536 c 0
 363 541.333333333 367.333333333 544 372 544 c 0
 376 544 383.666666667 540.666666667 395 534 c 0
 406.333333333 527.333333333 419.666666667 518.833333333 435 508.5 c 0
 450.333333333 498.166666667 466.166666667 487 482.5 475 c 0
 498.833333333 463 513.666666667 451.666666667 527 441 c 0
 535 435 539 428.666666667 539 422 c 0
 539 418.666666667 536.666666667 412.666666667 532 404 c 0
 527.333333333 395.333333333 521.333333333 391 514 391 c 0
405 -19 m 2
 396.333333333 -17.6666666667 387.666666667 -15 379 -11 c 0
 370.333333333 -7 363 -2.66666666667 357 2 c 0
 354.333333333 4.66666666667 353 7 353 9 c 0
 353 12.3333333333 355 15 359 17 c 0
 372.333333333 24.3333333333 384 35 394 49 c 0
 414 76.3333333333 435.333333333 106.166666667 458 138.5 c 0
 480.666666667 170.833333333 502.833333333 204 524.5 238 c 0
 546.166666667 272 566 304.333333333 584 335 c 0
 596.666666667 356.333333333 607 367 615 367 c 0
 619.666666667 367 622 363.333333333 622 356 c 0
 622 352.666666667 619.666666667 344.666666667 615 332 c 0
 610.333333333 319.333333333 601.333333333 299.833333333 588 273.5 c 0
 574.666666667 247.166666667 556 212.333333333 532 169 c 0
 508 125.666666667 476.333333333 72 437 8 c 0
 433 0.666666666667 429 -5.66666666667 425 -11 c 0
 421 -16.3333333333 415.666666667 -19 409 -19 c 2
 405 -19 l 2
EndSplineSet
Validated: 1
EndChar

StartChar: uniE03B
Encoding: 57403 57403 27
Width: 1000
Flags: W
HStem: -7 46<76.3455 309.917> 21 53<723.074 936.065>
VStem: 441 55<53 399 446 754.998>
LayerCount: 2
Fore
SplineSet
129 -6 m 2x60
 124.333333333 -6 120 -6.16666666667 116 -6.5 c 0
 112 -6.83333333333 108.333333333 -7 105 -7 c 0
 93 -7 83.3333333333 -4.33333333333 76 1 c 0
 67.3333333333 11 61 22.6666666667 57 36 c 0
 57 37.3333333333 56.8333333333 38.3333333333 56.5 39 c 0
 56.1666666667 39.6666666667 56 40.3333333333 56 41 c 0
 56 44.3333333333 57.6666666667 46 61 46 c 0
 63 46 64.6666666667 45.6666666667 66 45 c 0
 74 42.3333333333 82.5 40.6666666667 91.5 40 c 0
 100.5 39.3333333333 109.333333333 39 118 39 c 2xa0
 447 51 l 1
 441 703 l 2
 441 713 440.333333333 721.666666667 439 729 c 0
 437.666666667 736.333333333 434.666666667 744.333333333 430 753 c 0
 429.333333333 754.333333333 429 755.666666667 429 757 c 0
 429 761 432.666666667 763 440 763 c 0
 449.333333333 763 460.666666667 760.333333333 474 755 c 0
 487.333333333 749.666666667 494 743.333333333 494 736 c 2
 496 446 l 1
 677 456 l 2
 697 458 697 458 712 459.5 c 0
 722 460.5 730.333333333 462.333333333 737 465 c 0
 741 466.333333333 744.333333333 467 747 467 c 0
 755.666666667 467 765.666666667 462.5 777 453.5 c 0
 788.333333333 444.5 794 436.333333333 794 429 c 256
 794 421.666666667 788.666666667 417.333333333 778 416 c 2
 496 399 l 1
 498 53 l 1
 837 65 l 2
 855.666666667 65.6666666667 874 68 892 72 c 0
 896 73.3333333333 899.333333333 74 902 74 c 0
 910.666666667 74 919.833333333 69.1666666667 929.5 59.5 c 0
 939.166666667 49.8333333333 944 41.3333333333 944 34 c 0
 944 25.3333333333 939.666666667 21 931 21 c 2
 129 -6 l 2x60
EndSplineSet
Validated: 1
EndChar

StartChar: uniE03C
Encoding: 57404 57404 28
Width: 1000
Flags: W
HStem: 620 44<115.283 267.488>
VStem: 449 56<-63.9883 427 454 563> 457 51<45 427 454 637>
LayerCount: 2
Fore
SplineSet
449 -30 m 2xc0
 451 -16.6666666667 452.333333333 -4.66666666667 453 6 c 0
 453.666666667 16.6666666667 454 29.6666666667 454 45 c 2
 457 637 l 1
 170 621 l 2
 164 620.333333333 158.666666667 620 154 620 c 0
 147 620 147 620 142 620 c 0
 130 620 121 622.666666667 115 628 c 0
 109 633.333333333 103.666666667 644 99 660 c 0
 98.3333333333 661.333333333 98 663 98 665 c 0
 98 667.666666667 99.6666666667 669 103 669 c 0
 103.666666667 669 104.333333333 668.833333333 105 668.5 c 0
 105.666666667 668.166666667 106.333333333 668 107 668 c 0
 111.666666667 666.666666667 116.666666667 665.666666667 122 665 c 0
 127.333333333 664.333333333 132.333333333 664 137 664 c 0
 140.333333333 664 143.666666667 664.166666667 147 664.5 c 0
 150.333333333 664.833333333 153.333333333 665 156 665 c 2
 809 705 l 2
 826.333333333 705.666666667 841.333333333 708.333333333 854 713 c 0
 855.333333333 713.666666667 857.666666667 714 861 714 c 0
 871.666666667 714 881.5 709.166666667 890.5 699.5 c 0
 899.5 689.833333333 904 682 904 676 c 0
 904 668.666666667 899.666666667 664.333333333 891 663 c 2
 510 641 l 1
 508 454 l 1
 513.333333333 462 519.333333333 466 526 466 c 0
 530 466 539.166666667 462.5 553.5 455.5 c 0
 567.833333333 448.5 585 439.5 605 428.5 c 0
 625 417.5 646 405.5 668 392.5 c 0
 690 379.5 711.166666667 366.666666667 731.5 354 c 0
 751.833333333 341.333333333 769 330.333333333 783 321 c 0
 791.666666667 315.666666667 796 308.666666667 796 300 c 0
 796 296.666666667 794.333333333 291 791 283 c 0
 784.333333333 271 777.666666667 265 771 265 c 0
 767.666666667 265 762.333333333 267.333333333 755 272 c 0
 731.666666667 290 706.333333333 308 679 326 c 0
 651.666666667 344 625.5 360.333333333 600.5 375 c 0
 575.5 389.666666667 554.5 401.833333333 537.5 411.5 c 0
 520.5 421.166666667 510.666666667 426.333333333 508 427 c 1xa0
 505 -51 l 2
 505 -63.6666666667 499.666666667 -70 489 -70 c 0
 482.333333333 -70 474 -66.6666666667 464 -60 c 0
 454 -53.3333333333 449 -45 449 -35 c 2
 449 -30 l 2xc0
EndSplineSet
Validated: 1
EndChar

StartChar: uniE035
Encoding: 57397 57397 29
Width: 1000
Flags: W
HStem: -71 60<514.425 567.667>
VStem: 574 48<-10.995 355.641> 628 55<708.037 759.301>
LayerCount: 2
Fore
SplineSet
564 358 m 1
 530.666666667 311.333333333 497 271.833333333 463 239.5 c 0
 429 207.166666667 399.833333333 182.666666667 375.5 166 c 0
 351.166666667 149.333333333 335.666666667 141 329 141 c 0
 325 141 323 142.666666667 323 146 c 0
 323 152.666666667 328.666666667 160.666666667 340 170 c 0
 384 207.333333333 422.5 246.333333333 455.5 287 c 0
 488.5 327.666666667 520.666666667 373 552 423 c 1
 547.333333333 442.333333333 541.833333333 461.5 535.5 480.5 c 0
 529.166666667 499.5 522.333333333 518.333333333 515 537 c 1
 475 502.333333333 440.833333333 476.666666667 412.5 460 c 0
 384.166666667 443.333333333 366 435 358 435 c 0
 352.666666667 435 350 436.666666667 350 440 c 0
 350 446.666666667 356.666666667 454.666666667 370 464 c 0
 392 481.333333333 413.666666667 499.333333333 435 518 c 0
 456.333333333 536.666666667 477 556.333333333 497 577 c 1
 474.333333333 624.333333333 447 668 415 708 c 0
 412.333333333 710.666666667 411 714 411 718 c 0
 411 723.333333333 414.333333333 728 421 732 c 0
 427.666666667 735.333333333 432.666666667 737 436 737 c 0
 442 737 447 734.333333333 451 729 c 0
 465.666666667 710.333333333 479.5 691.166666667 492.5 671.5 c 0
 505.5 651.833333333 517.666666667 631.333333333 529 610 c 1
 546.333333333 629.333333333 562.5 648.666666667 577.5 668 c 0
 592.5 687.333333333 606.333333333 706.666666667 619 726 c 0
 623 732 625.5 738.333333333 626.5 745 c 0
 627.5 751.666666667 628 758 628 764 c 256
 628 770 630.333333333 773 635 773 c 0
 638.333333333 773 643.833333333 770.666666667 651.5 766 c 0
 659.166666667 761.333333333 666.333333333 755.666666667 673 749 c 0
 679.666666667 742.333333333 683 735.666666667 683 729 c 0
 683 727.666666667 682.333333333 725.666666667 681 723 c 0
 659.666666667 693.666666667 638.166666667 666.166666667 616.5 640.5 c 0
 594.833333333 614.833333333 572.333333333 591 549 569 c 1
 574.333333333 516.333333333 592.833333333 457.666666667 604.5 393 c 0
 616.166666667 328.333333333 622 254.333333333 622 171 c 0
 622 117.666666667 621.166666667 77 619.5 49 c 0
 617.833333333 21 615.666666667 1 613 -11 c 0
 610.333333333 -23 607.333333333 -32 604 -38 c 0
 597.333333333 -50 590.833333333 -58.5 584.5 -63.5 c 0
 578.166666667 -68.5 571.333333333 -71 564 -71 c 0
 556 -71 543.833333333 -66.3333333333 527.5 -57 c 0
 511.166666667 -47.6666666667 494 -36.3333333333 476 -23 c 0
 458 -9.66666666667 442.833333333 3 430.5 15 c 0
 418.166666667 27 412 36 412 42 c 0
 412 46 414.666666667 48 420 48 c 0
 426.666666667 48 435.666666667 44.6666666667 447 38 c 0
 462.333333333 29.3333333333 478.833333333 20.8333333333 496.5 12.5 c 0
 514.166666667 4.16666666667 531.333333333 -3.33333333333 548 -10 c 0
 549.333333333 -10.6666666667 550.666666667 -11 552 -11 c 0
 556 -11 559.333333333 -4.16666666667 562 9.5 c 0
 564.666666667 23.1666666667 566.833333333 40.1666666667 568.5 60.5 c 0
 570.166666667 80.8333333333 571.333333333 101.333333333 572 122 c 0
 572.666666667 142.666666667 573.166666667 160.333333333 573.5 175 c 0
 573.833333333 189.666666667 574 197.666666667 574 199 c 0
 574 226.333333333 573.166666667 253.833333333 571.5 281.5 c 0
 569.833333333 309.166666667 567.333333333 334.666666667 564 358 c 1
EndSplineSet
Validated: 1
EndChar
